<?xml version="1.0" encoding="UTF-8"?>
<svg xmlns="http://www.w3.org/2000/svg" xmlns:xlink="http://www.w3.org/1999/xlink" viewBox="0 0 50 50" width="50px" height="50px">
<g id="surface31326327">
<path style=" stroke:none;fill-rule:nonzero;fill:rgb(5.098039%,43.137255%,99.215686%);fill-opacity:1;" d="M 9 5 C 8.804688 4.996094 8.609375 5.054688 8.445312 5.160156 C 8.441406 5.160156 8.4375 5.164062 8.433594 5.167969 L 4.550781 7.105469 C 4.214844 7.277344 4 7.621094 4 8 L 4 20 C 4 20.3125 4.148438 20.613281 4.398438 20.800781 L 6.257812 22.195312 L 4.941406 22.269531 C 4.820312 22.277344 4.707031 22.304688 4.601562 22.351562 C 4.238281 22.507812 4 22.867188 4 23.269531 L 4 38 C 4 38.265625 4.105469 38.519531 4.292969 38.707031 L 8.265625 42.679688 C 8.269531 42.683594 8.273438 42.6875 8.277344 42.691406 L 8.292969 42.707031 C 8.386719 42.800781 8.496094 42.875 8.621094 42.925781 C 8.621094 42.925781 8.621094 42.925781 8.625 42.925781 C 8.785156 42.992188 8.960938 43.015625 9.132812 42.992188 L 24.132812 40.992188 C 24.628906 40.925781 25 40.5 25 40 L 25 38.882812 L 27.375 40.78125 C 27.378906 40.785156 27.382812 40.785156 27.386719 40.789062 C 27.472656 40.851562 27.566406 40.90625 27.667969 40.941406 C 27.671875 40.941406 27.675781 40.945312 27.679688 40.949219 C 27.78125 40.980469 27.890625 41 28 41 C 28 41 28 41 28.003906 41 C 28.046875 41 28.09375 40.996094 28.140625 40.992188 L 42.140625 38.992188 C 42.632812 38.921875 43 38.496094 43 38 L 43 24.75 C 43.003906 24.257812 42.652344 23.832031 42.167969 23.753906 L 37.902344 22.296875 L 42.070312 22 C 42.59375 21.960938 43 21.523438 43 21 L 43 6 C 43 5.449219 42.550781 5 42 5 L 28 5 C 27.957031 5 27.914062 5.003906 27.875 5.007812 C 27.871094 5.007812 27.867188 5.007812 27.867188 5.007812 C 27.863281 5.007812 27.859375 5.007812 27.859375 5.011719 C 27.746094 5.023438 27.640625 5.054688 27.539062 5.105469 C 27.53125 5.109375 27.527344 5.113281 27.519531 5.117188 L 25 6.125 L 25 6 C 25 5.449219 24.550781 5 24 5 Z M 10 7 L 23 7 L 23 21.21875 L 10 21.976562 Z M 29 7 L 41 7 L 41 20.070312 L 32.859375 20.648438 L 32.855469 20.648438 L 29 20.875 Z M 41 25.820312 L 41 37.132812 L 29 38.847656 L 29 26.636719 Z M 23 27.050781 L 23 39.125 L 10 40.855469 L 10 27.9375 Z M 23 27.050781 "/>
</g>
</svg>
